<svg xmlns="http://www.w3.org/2000/svg" xml:space="preserve" width="655.359" height="655.359" style="shape-rendering:geometricPrecision;text-rendering:geometricPrecision;image-rendering:optimizeQuality;fill-rule:evenodd;clip-rule:evenodd" viewBox="0 0 6.827 6.827"><defs><style>.fil2{fill:#2f2f2f}.fil5{fill:#fff}</style></defs><g id="Layer_x0020_1"><g id="_503757656"><rect id="_503759864" x=".853" y=".853" width="5.12" height="5.12" rx=".271" ry=".271" style="fill:#404040"/><path id="_503760128" style="fill:#e1e1e2" d="M1.335 1.335h4.156v1.37H1.335z"/><rect id="_503760368" class="fil2" x="1.38" y="3.037" width="1.137" height="1.114" rx=".09" ry=".09"/><rect id="_503760056" class="fil2" x="2.837" y="3.037" width="1.137" height="1.114" rx=".09" ry=".09"/><rect id="_503759672" x="4.294" y="3.037" width="1.137" height="1.114" rx=".09" ry=".09" style="fill:#8a8a8a"/><rect id="_503760152" class="fil2" x="1.38" y="4.513" width="1.137" height="1.114" rx=".09" ry=".09"/><rect id="_503759336" class="fil2" x="2.837" y="4.513" width="1.137" height="1.114" rx=".09" ry=".09"/><rect id="_503759528" x="4.294" y="4.513" width="1.137" height="1.114" rx=".09" ry=".09" style="fill:#949494"/><path id="_503759048" class="fil5" d="M1.838 3.248h.222v.693h-.222z"/><path id="_503759240" class="fil5" transform="rotate(90 -.594 2.889) scale(1.0263)" d="M0 0h.217v.675H0z"/><path id="_503758904" class="fil5" transform="rotate(90 .135 3.618) scale(1.0263)" d="M0 0h.217v.675H0z"/><path id="_503759072" class="fil5" transform="rotate(45 -3.943 6.685) scale(1.0263)" d="M0 0h.217v.675H0z"/><path id="_503758400" class="fil5" transform="rotate(135 .78 3.39) scale(1.0263)" d="M0 0h.217v.675H0z"/><path id="_503758232" class="fil5" transform="rotate(90 -1.332 3.627) scale(1.0263)" d="M0 0h.217v.675H0z"/><circle id="_503758808" class="fil5" cx="1.949" cy="5.367" r=".111"/><circle id="_503758304" class="fil5" cx="1.949" cy="4.772" r=".111"/><g><path id="_503758616" class="fil5" transform="rotate(90 .22 4.99) scale(1.0263)" d="M0 0h.217v.675H0z"/><path id="_503758256" class="fil5" transform="rotate(90 .031 5.178) scale(1.0263)" d="M0 0h.217v.675H0z"/></g><path id="_503757776" d="m5.033 3.677.122.038a.274.274 0 0 1-.093.152.267.267 0 0 1-.166.05.269.269 0 0 1-.204-.085.325.325 0 0 1-.08-.232c0-.104.026-.185.08-.243a.276.276 0 0 1 .212-.086.26.26 0 0 1 .186.068c.028.027.05.065.064.115l-.125.03a.131.131 0 0 0-.046-.077.132.132 0 0 0-.086-.028.142.142 0 0 0-.112.05c-.03.033-.044.087-.044.161 0 .08.015.135.043.169.028.033.065.05.11.05.034 0 .063-.01.087-.032a.186.186 0 0 0 .052-.1z" style="fill:#fff;fill-rule:nonzero"/></g></g><path style="fill:none" d="M0 0h6.827v6.827H0z"/></svg>